<?xml version="1.0"?>
<svg xmlns="http://www.w3.org/2000/svg" id="Layer_1" data-name="Layer 1" viewBox="0 0 512 512" width="512" height="512"><title>Bar map pointer</title><path d="M446,118.11v205.1a38,38,0,0,1-38,38H299.62L257.16,469.48a5.206,5.206,0,0,1-8.78,0L205.92,361.21H104a38,38,0,0,1-38-38V118.11a38,38,0,0,1,38-38H408A38,38,0,0,1,446,118.11Z" style="fill:#e48e66"/><path d="M308.22,275.64a24.841,24.841,0,0,1-24.55-24.83V240.36h49.75v10.45a24.86,24.86,0,0,1-24.88,24.84C308.43,275.65,308.33,275.65,308.22,275.64Z" style="fill:#e2d574"/><rect x="283.67" y="208.31" width="49.75" height="32.05" style="fill:#6fe3ff"/><path d="M223.26,179.64a35.549,35.549,0,0,1,23.81,33.54v21.23H206.35v64.61h40.72v18.72a14.207,14.207,0,0,1-14.21,14.21H190.21A14.207,14.207,0,0,1,176,317.74V213.18a35.535,35.535,0,0,1,47.26-33.54Z" style="fill:#f8ec7d"/><polygon points="247.07 234.41 247.07 299.02 245.8 299.02 206.35 299.02 206.35 234.41 247.07 234.41" style="fill:#6fe3ff"/><path d="M223.26,137.54v42.1a35.537,35.537,0,0,0-23.45,0v-42.1h23.45Z" style="fill:#6fe3ff"/><polygon points="223.26 118.79 223.26 137.54 222.79 137.54 199.81 137.54 199.81 118.79 222.79 118.79 223.26 118.79" style="fill:#f8ec7d"/><polygon points="223.26 100.06 223.26 118.79 222.79 118.79 199.81 118.79 199.81 100.06 223.26 100.06" style="fill:#e2d574"/><path d="M253.17,504.96C185.5,504.96,117,490.578,117,463.09c0-11.054,10.583-20.413,31.455-27.819,17.89-6.349,43.032-10.971,70.795-13.014a6,6,0,1,1,.88,11.967C157.963,438.8,129,454.154,129,463.09c0,5.117,10.442,13.155,33.771,19.579,24.1,6.637,56.205,10.291,90.4,10.291,63.623,0,109.065-12.364,121.071-24.577,1.858-1.891,2.786-3.637,2.76-5.191,0-.034,0-.068,0-.1,0-8.813-28.637-23.973-90.1-28.527a6,6,0,1,1,.887-11.966c27.5,2.037,52.417,6.645,70.156,12.974,20.579,7.344,31.029,16.585,31.061,27.469.068,4.872-2.019,9.5-6.2,13.755C366.239,493.642,314.145,504.96,253.17,504.96Z" style="fill:#6fe3ff"/><path d="M333.22,325.97h-19V273.65h-12v52.32h-20.4a6,6,0,1,0,0,12h51.4a6,6,0,0,0,0-12Z" style="fill:#f8ec7d"/></svg>
