<svg id="Guide" height="512" viewBox="0 0 512 512" width="512" xmlns="http://www.w3.org/2000/svg"><path d="m353.715 67.194c45.77 47.86 60.11 123.73 20.91 188.34l-137.38 226.44h-.22l-130.27-230.61c-58.46-103.48 16.3-231.58 135.15-231.58 45.43 0 84.295 18.64 111.81 47.41zm-4.84 112.74a106.96 106.96 0 1 0 -106.96 106.96 106.955 106.955 0 0 0 106.96-106.96z" fill="#6fe3ff"/><path d="m241.915 72.984a106.955 106.955 0 1 1 -106.96 106.95 106.955 106.955 0 0 1 106.96-106.95zm78.17 110.3c0-7.61-4.95-16.43-12.49-21.97a29.129 29.129 0 0 0 -7.41-3.99 24.988 24.988 0 0 0 -8.42-1.49h-3.165l-.11.01a109.712 109.712 0 0 0 -1.38-13.4c-.15-.86-.7-1.46-1.32-1.46h-107.235c-.62 0-1.17.6-1.32 1.46a111.849 111.849 0 0 0 -1.48 17c-.04 3.23.06 6.42.28 9.55h.01c2.39 33.47 19.25 60.71 41.84 68.92a7.842 7.842 0 0 0 2.67.45h23.12a7.817 7.817 0 0 0 2.68-.45c8.31-3.04 15.87-8.69 22.23-16.29l5.26-2.47a167.053 167.053 0 0 1 25.08-9.7 30.571 30.571 0 0 0 15.2-9.61 25.521 25.521 0 0 0 5.96-16.56z" fill="#f8ec7d"/><path d="m307.6 161.314c7.54 5.54 12.49 14.36 12.49 21.97a25.521 25.521 0 0 1 -5.96 16.56 30.571 30.571 0 0 1 -15.2 9.61 167.053 167.053 0 0 0 -25.08 9.7l-5.26 2.47c10.84-12.95 18.17-31.57 19.71-52.63q.3-4.08.3-8.27c0-1.64-.04-3.27-.11-4.88l.11-.01h3.17a24.988 24.988 0 0 1 8.42 1.49 29.129 29.129 0 0 1 7.41 3.99z" fill="#f8ec7d"/><path d="m288.485 155.844c.07 1.61.11 3.24.11 4.88q0 4.185-.3 8.27l-1.31-.09h-109.73l-1.21.09h-.01c-.22-3.13-.32-6.32-.28-9.55a111.849 111.849 0 0 1 1.48-17c.15-.86.7-1.46 1.32-1.46h107.23c.62 0 1.17.6 1.32 1.46a109.712 109.712 0 0 1 1.38 13.4z" fill="#6fe3ff"/><path d="m286.985 168.9 1.31.09c-1.54 21.06-8.87 39.68-19.71 52.63-6.36 7.6-13.92 13.25-22.23 16.29a7.817 7.817 0 0 1 -2.68.45h-23.12a7.842 7.842 0 0 1 -2.67-.45c-22.59-8.21-39.45-35.45-41.84-68.92l1.21-.09z" fill="#e48e66"/><g fill="#63316d"><path d="m241.906 13.784c-57.973 0-110.028 29.891-139.249 79.96s-29.642 110.1-1.126 160.571l131.992 233.658h7.1l139.132-229.327c19.386-31.953 27.072-68.039 22.226-104.357a164.513 164.513 0 0 0 -43.93-91.242c-30.387-31.768-71.635-49.263-116.145-49.263zm127.594 238.638-132.184 217.868-125.337-221.877c-26.393-46.719-26-102.278 1.042-148.62s75.227-74.009 128.885-74.009c41.2 0 79.372 16.18 107.473 45.556a152.44 152.44 0 0 1 40.708 84.536c4.479 33.575-2.641 66.96-20.587 96.546z"/><path d="m241.915 66.984a112.955 112.955 0 1 0 112.96 112.949 113.083 113.083 0 0 0 -112.96-112.949zm0 213.909a100.955 100.955 0 1 1 100.96-100.96 101.074 101.074 0 0 1 -100.96 100.96z"/><path d="m302.2 151.673a31.342 31.342 0 0 0 -8.11-1.744c-.258-2.851-.609-5.7-1.077-8.515a7.511 7.511 0 0 0 -7.231-6.43h-107.227a7.532 7.532 0 0 0 -7.24 6.486 118.13 118.13 0 0 0 -1.559 17.9c-.041 3.3.058 6.684.294 10.045l.393 5.579h.145c3.933 33.278 21.322 59.864 45.265 68.565a13.845 13.845 0 0 0 4.7.805h23.121a13.8 13.8 0 0 0 4.741-.816 59.058 59.058 0 0 0 23.876-17.037l4.1-1.926a159.029 159.029 0 0 1 24.177-9.362 36.436 36.436 0 0 0 18.161-11.539 31.483 31.483 0 0 0 7.35-20.4c0-9.617-5.863-20.139-14.924-26.8a35.178 35.178 0 0 0 -8.955-4.811zm-119.57-4.689h99.082c.391 3.012.652 6.065.779 9.121.069 1.59.1 3.144.1 4.618 0 .729-.024 1.454-.039 2.181h-100.777c-.022-1.138-.034-2.273-.02-3.4a106.147 106.147 0 0 1 .875-12.52zm61.67 85.292a1.855 1.855 0 0 1 -.626.088h-23.119a1.893 1.893 0 0 1 -.62-.089c-19.053-6.925-33.557-29.565-37.252-57.371h98.962c-2.248 16.769-8.408 31.815-17.661 42.869-5.763 6.886-12.571 11.901-19.684 14.503zm65.216-36.276a24.5 24.5 0 0 1 -12.237 7.681c-4.216 1.2-8.5 2.663-13.02 4.43a107.45 107.45 0 0 0 10.02-38.68c.178-2.415.265-4.89.292-7.368a19.64 19.64 0 0 1 3.578.9 23.181 23.181 0 0 1 5.894 3.181c5.913 4.345 10.042 11.391 10.042 17.136a19.623 19.623 0 0 1 -4.569 12.72z"/></g></svg>