<svg id="Layer_1" enable-background="new 0 0 512 512" height="512" viewBox="0 0 512 512" width="512" xmlns="http://www.w3.org/2000/svg"><g><path d="m376.62 210.73c0 66.61-54 120.62-120.62 120.62-1.73 0-3.46-.04-5.17-.12-64.22-2.7-115.45-55.62-115.45-120.5 0-64.87 51.21-117.79 115.41-120.51h.01c1.72-.08 3.46-.12 5.2-.12 66.62 0 120.62 54.01 120.62 120.63z" fill="#d0edf5"/><path d="m376.62 210.73c0 66.61-54 120.62-120.62 120.62-1.73 0-3.46-.04-5.17-.12 56.04-11.48 98.18-61.08 98.18-120.5 0-59.44-42.16-109.04-98.21-120.51 1.72-.08 3.46-.12 5.2-.12 66.62 0 120.62 54.01 120.62 120.63z" fill="#a6dff5"/><g><g><path d="m407.64 59.87c-38.61-38.61-92.47-59.87-151.64-59.87-3.86 0-7.69.09-11.5.27-54.63 2.58-104.05 23.51-140.14 59.6-38.61 38.61-59.87 92.46-59.87 151.64 0 45.175 12.576 80.717 32.675 112.123l-3.043 13.263 11.538-.816c21.182 29.224 48.692 55.306 78.04 83.13 26.73 25.35 54.33 51.51 80.8 83.13 1.9 2.26 3.79 4.56 5.67 6.88 1.43 1.76 3.57 2.78 5.83 2.78s4.4-1.02 5.83-2.78c28.18-34.75 57.82-62.84 86.47-90.01 29.267-27.748 56.707-53.763 77.865-82.889l9.956-1.789-1.285-10.899c20.099-31.406 32.675-66.949 32.675-112.123-.001-59.18-21.261-113.03-59.871-151.64zm-264.56 150.32c0-62.27 50.66-112.93 112.92-112.93s112.92 50.66 112.92 112.93c0 62.26-50.66 112.92-112.92 112.92s-112.92-50.66-112.92-112.92z" fill="#f77a49"/><path d="m467.51 211.51c0 94.68-55.24 147.05-119.21 207.7-28.65 27.17-58.29 55.26-86.47 90.01-1.43 1.76-3.57 2.78-5.83 2.78s-4.4-1.02-5.83-2.78c-1.88-2.32-3.77-4.62-5.67-6.88 26.47-31.62 54.07-57.78 80.8-83.13 63.97-60.65 119.21-113.02 119.21-207.7 0-59.18-21.26-113.03-59.87-151.64-36.09-36.09-85.51-57.02-140.14-59.6 3.81-.18 7.64-.27 11.5-.27 59.17 0 113.03 21.26 151.64 59.87s59.87 92.46 59.87 151.64z" fill="#de4f42"/><path d="m358.49 107.7c-26.26-26.26-62.51-42.52-102.49-42.52-3.65 0-7.26.14-10.84.4-35.67 2.65-67.78 18.25-91.65 42.12-26.26 26.26-42.52 62.51-42.52 102.49s16.26 76.22 42.52 102.48c23.82 23.82 55.85 39.41 91.43 42.11 3.65.27 7.34.41 11.06.41 39.98 0 76.23-16.26 102.49-42.52s42.52-62.5 42.52-102.48-16.26-76.23-42.52-102.49zm-182.3 182.3c-20.45-20.45-33.11-48.68-33.11-79.81 0-31.14 12.66-59.37 33.11-79.82 20.45-20.44 48.68-33.11 79.81-33.11s59.36 12.67 79.81 33.11c20.45 20.45 33.11 48.68 33.11 79.82 0 31.13-12.66 59.36-33.11 79.81s-48.68 33.11-79.81 33.11-59.36-12.66-79.81-33.11z" fill="#3a4b56"/><path d="m401.01 210.19c0 39.98-16.26 76.22-42.52 102.48s-62.51 42.52-102.49 42.52c-3.72 0-7.41-.14-11.06-.41 74.98-5.6 134.07-68.21 134.07-144.61 0-76.34-58.98-138.89-133.85-144.59 3.58-.26 7.19-.4 10.84-.4 39.98 0 76.23 16.26 102.49 42.52s42.52 62.51 42.52 102.49z" fill="#253235"/><g fill="#6f7f8f"><path d="m358.49 107.7-11.53 11.53-11.15 11.14c-20.45-20.44-48.68-33.11-79.81-33.11s-59.36 12.67-79.81 33.11l-22.68-22.67c23.87-23.87 55.98-39.47 91.65-42.12 3.58-.26 7.19-.4 10.84-.4 39.98 0 76.23 16.26 102.49 42.52z"/><path d="m358.49 312.67c-26.26 26.26-62.51 42.52-102.49 42.52-3.72 0-7.41-.14-11.06-.41-35.58-2.7-67.61-18.29-91.43-42.11l22.68-22.67c20.45 20.45 48.68 33.11 79.81 33.11s59.36-12.66 79.81-33.11l11.13 11.13z"/></g><path d="m277.026 386.429-42.004-.138h-.024c-1.984 0-3.889.787-5.295 2.188-1.411 1.407-2.205 3.319-2.205 5.312v48.368c0 2.687 1.437 5.167 3.767 6.505 2.329 1.337 5.195 1.326 7.517-.029l17.218-10.058 17.219 10.058c1.169.683 2.476 1.024 3.783 1.024 1.288 0 2.577-.332 3.733-.995 2.33-1.337 3.767-3.818 3.767-6.505v-48.229c0-4.133-3.343-7.487-7.476-7.501z" fill="#a6dff5"/><g><path d="m363.442 381.701-22.422 82.427c-.875 3.216-3.768 5.469-7.1 5.53-.047.001-.093.001-.139.001-3.275 0-6.181-2.129-7.159-5.267l-24.74-79.32z" fill="#5bc196"/><path d="m383.508 378.168 36.004-12.705c2.297-.811 4.842-.456 6.828.95 1.987 1.406 3.168 3.688 3.168 6.123v49.935c0 2.52-1.266 4.871-3.368 6.259s-4.761 1.627-7.08.637l-12.573-5.375-15.438 14.029c-1.408 1.28-3.215 1.95-5.046 1.95-1.025 0-2.059-.21-3.033-.642-2.714-1.201-4.465-3.89-4.465-6.858v-47.23c-.001-3.18 2.005-6.014 5.003-7.073z" fill="#ffba4c"/></g><g><path d="m148.558 381.701 22.422 82.427c.875 3.216 3.768 5.469 7.1 5.53.047.001.093.001.139.001 3.275 0 6.181-2.129 7.159-5.267l24.74-79.32z" fill="#997ab8"/><path d="m128.492 378.168-36.004-12.705c-2.297-.811-4.842-.456-6.828.95-1.987 1.406-3.168 3.688-3.168 6.123v49.935c0 2.52 1.266 4.871 3.368 6.259s4.761 1.627 7.08.637l12.573-5.375 15.438 14.029c1.408 1.28 3.215 1.95 5.046 1.95 1.025 0 2.059-.21 3.033-.642 2.714-1.201 4.465-3.89 4.465-6.858v-47.23c0-3.18-2.005-6.014-5.003-7.073z" fill="#ffba4c"/></g><path d="m448.95 354.9c-7.73 26.87-69.03 39.39-192.95 39.39s-185.22-12.52-192.95-39.39c-1.69-5.91-1.56-15.27 8.76-26.24 1.8-1.93 3.67-3.62 5.36-5.03 2.69 4.22 5.53 8.37 8.49 12.45-4.78 4.24-9.52 10.09-8.19 14.69.91 3.12 6.19 11.11 35.6 17.88 30.71 7.06 78.8 10.64 142.93 10.64 64.16 0 112.27-3.58 142.98-10.65 29.39-6.77 34.65-14.76 35.55-17.88 1.31-4.57-3.45-10.45-8.2-14.67 2.96-4.09 5.8-8.24 8.5-12.46 1.69 1.41 3.56 3.1 5.36 5.03 10.32 10.97 10.45 20.33 8.76 26.24z" fill="#98654c"/><path d="m317.46 195.71c.07 2.24-.87 4.45-2.65 5.94l-26.51 22.46 8.7 34.13c.76 2.98-.37 6.11-2.85 7.92-1.32.95-2.86 1.43-4.41 1.43-1.39 0-2.78-.38-4.01-1.16l-29.75-18.79-29.75 18.79c-2.6 1.64-5.93 1.54-8.42-.27-2.48-1.81-3.62-4.94-2.86-7.92l8.71-34.13-26.48-22.46c-2.33-1.98-3.23-5.17-2.27-8.07s3.58-4.93 6.63-5.13l34.45-2.27 13.02-32.68c1.14-2.85 3.9-4.72 6.97-4.72s5.83 1.87 6.97 4.72l13.01 32.68 34.5 2.27c3.05.2 5.67 2.23 6.63 5.13.24.7.36 1.41.37 2.13z" fill="#ffba4c"/><g fill="#ffba4c"><circle cx="85.347" cy="210.166" r="7.496"/><circle cx="426.987" cy="210.166" r="7.496"/><circle cx="255.957" cy="40.246" r="7.496"/><circle cx="135.377" cy="89.386" r="7.496"/><circle cx="376.947" cy="89.386" r="7.496"/><circle cx="376.943" cy="330.96" r="7.496"/><circle cx="135.377" cy="330.956" r="7.496"/></g><g fill="#57616c"><path d="m346.94 301.13 11.55 11.54c-26.26 26.26-62.51 42.52-102.49 42.52-3.72 0-7.41-.14-11.06-.41 41.18-3.08 77.56-23.35 102-53.65z"/><path d="m245.16 65.58c3.58-.26 7.19-.4 10.84-.4 39.98 0 76.23 16.26 102.49 42.52l-11.53 11.53c-24.4-30.26-60.7-50.52-101.8-53.65z"/></g></g><path d="m317.46 195.71c.07 2.24-.87 4.45-2.65 5.94l-26.51 22.46 8.7 34.13c.76 2.98-.37 6.11-2.85 7.92l-27.42-55.98 50.36-16.6z" fill="#fb963f"/></g></g></svg>