<svg id="Capa_1" enable-background="new 0 0 512 512" height="512" viewBox="0 0 512 512" width="512" xmlns="http://www.w3.org/2000/svg" xmlns:xlink="http://www.w3.org/1999/xlink"><linearGradient id="SVGID_1_" gradientUnits="userSpaceOnUse" x1="256" x2="256" y1="512" y2="0"><stop offset="0" stop-color="#ffe59a"/><stop offset="1" stop-color="#ffffd5"/></linearGradient><linearGradient id="SVGID_2_" gradientUnits="userSpaceOnUse" x1="256" x2="256" y1="407" y2="105"><stop offset="0" stop-color="#ffde00"/><stop offset="1" stop-color="#fd5900"/></linearGradient><g><g><circle cx="256" cy="256" fill="url(#SVGID_1_)" r="256"/></g><g><g><path d="m256 371.471c2.96 0 5.73-1.483 7.375-3.947 62.335-100.582 90.125-116.864 90.125-164.818 0-53.875-43.747-97.706-97.5-97.706s-97.5 43.831-97.5 97.706c0 47.985 27.564 63.872 90.125 164.818 1.645 2.463 4.415 3.947 7.375 3.947zm-24.402-131.751-6.932 6.947c-3.462 3.47-9.071 3.47-12.534 0-3.462-3.47-3.462-9.091 0-12.56l6.932-6.947c-3.08-4.658-5.335-9.911-6.487-15.571h-9.76c-4.899 0-8.864-3.973-8.864-8.882s3.964-8.882 8.864-8.882h9.76c1.151-5.66 3.406-10.913 6.487-15.571l-6.932-6.947c-3.462-3.47-3.462-9.091 0-12.56 3.462-3.47 9.071-3.47 12.534 0l6.932 6.947c4.648-3.088 9.889-5.345 15.538-6.499v-9.781c0-4.91 3.964-8.882 8.864-8.882s8.864 3.973 8.864 8.882v9.781c5.649 1.154 10.89 3.411 15.538 6.499l6.932-6.947c3.462-3.47 9.071-3.47 12.534 0 3.462 3.47 3.462 9.091 0 12.56l-6.932 6.947c3.08 4.658 5.335 9.911 6.487 15.571h9.76c4.899 0 8.864 3.973 8.864 8.882s-3.964 8.882-8.864 8.882h-9.76c-1.151 5.66-3.406 10.913-6.487 15.571l6.932 6.947c3.462 3.47 3.462 9.091 0 12.56-3.462 3.47-9.071 3.47-12.534 0l-6.932-6.947c-4.648 3.088-9.889 5.345-15.538 6.499v9.781c0 4.91-3.964 8.882-8.864 8.882s-8.864-3.973-8.864-8.882v-9.781c-5.649-1.154-10.89-3.411-15.538-6.499zm50.993-37.014c0-14.694-11.928-26.647-26.591-26.647s-26.591 11.953-26.591 26.647 11.928 26.647 26.591 26.647 26.591-11.953 26.591-26.647zm-35.455 0c0-4.906 3.969-8.882 8.864-8.882s8.864 3.976 8.864 8.882c0 4.905-3.969 8.882-8.864 8.882s-8.864-3.977-8.864-8.882zm44.319 186.529h-70.909c-4.899 0-8.864 3.973-8.864 8.882 0 4.91 3.964 8.882 8.864 8.882h70.909c4.899 0 8.864-3.973 8.864-8.882-.001-4.909-3.965-8.882-8.864-8.882z" fill="url(#SVGID_2_)"/></g></g></g></svg>